P3
24 4
255
     255 255 255   255 255 255     255 255 255     0   0   0
      0   0   0    0   0   0         0   0   0        0   0   0            
     63   0   127   63   0   127    63   0   127      0   0   0          
     0   0   0     127   0   63      0   0    0       0   0   0       
     0   255   0     0   255   0    0   255   0    0   0   0  
    0   0   0     0   0   255         0   0   255         0   0   0

     255 255 255     0   0   0    255 255 255   0   0   0   
     0   0   0    0   0   0         0   0   0     0   0   0       
     63   0   127   0 0 0      0   0   0      0   0   0     
     127   0   63   127   0   63   127   0   63    0   0   0   
     0   255   0   0   0   0      0   0   0         0   0   0      
     0    0  255     0   0   255     0   0   0     0   0    0

     255 255 255   255 255 255    255 255 255        0   0   0  
    0   0   0    0   0   0         0   0   0        0   0   0       
     63   0   127   63   0   127    63   0   127       0  0  0   
     0   0   0   127   0   63     0   0   0           0   0   0   
     0   255   0   0   255   0     0   255   0       0   0   0  
    0   0   255       0   0   255     0   0   0       0   0   0

     255 255 255  0   0   0       0   0   0     0   0   0     
    255 255 255    255 255 255   255 255 255   0   0    0    
     0   0   0    0  0  0         0   0   0     0   0   0 
     0   0   0    127   0   63     0   0   0     0   0   0  
     0   255  0   0   0   0      0   0   0     0   0   0  
     0   0   0    0   0   255     0   0   255       0   0   0


