P3
32 5
255
     255 255 255   255 255 255     255 255 255    0   0   0
     0 0 0         0   0   0        0   0   0      0 0 0
     255 255 255     255 255 255   255 255 255      0   0   0
    255 255 255   255 255 255     255 255 255     0   0   0
    0   0   0    0   0   0     0   0   0         0   0   0
    0   0   0    0   0   0     255 255 255     0   0   0
    255 255 255    0   0   0     0   0   0     0   0   0
    0   0   0    0   0   0     0   0   0     0   0   0

     255  255   255   0   0   0    0   0   0   0   0   0
     255   255   255   0 0 0      0   0   0      0   0   0
     0  0  0     255   255   255       0  0  0      0   0   0
     0   0   0    0   0   0    255 255 255      0   0   0
     255   255   255   0 0 0      0   0   0      0   0   0
    0   0   0    0   0   0     255 255 255     0   0   0
    255 255 255    0   0   0     0   0   0     0   0   0
    255 255 255    0   0   0     255 255 255     0   0   0

     255 255 255  255 255 255    255 255 255        0   0   0
     255 255 255  255   255 255    255 255 255       0  0  0
     0   0   0   255  255 255    0   0   0           0   0   0
    255 255 255   255 255 255    255 255 255      0   0   0
    255 255 255  255   255   255    255 255 255       0  0  0
    255 255 255    255 255 255    255 255 255     0   0   0
    255 255 255    0   0   0     0   0   0     0   0   0
    255 255 255    255 255 255    255 255 255     0   0   0

     255 255 255  0   0   0       0   0   0     0   0   0
     255 255 255    0  0  0         0   0   0     0   0   0
     0   0   0    255   255 255    0   0   0     0   0   0
    0   0   0    0   0   0     255 255 255     0   0   0
    255 255 255    0   0   0     255  255 255     0   0   0
    255 255 255    0   0   0     255 255 255     0   0   0
    255 255 255    0   0   0     0   0   0     0   0   0
    0   0   0    0   0   0     255 255 255     0   0   0

    255 255 255   0   0   0       0   0   0         0   0   0
     255 255 255   0   0   0        0   0   0      0 0 0
     255 255 255    255 255 255     255 255  255        0   0   0
     255 255 255  255 255 255    255 255 255   0   0   0
    255 225 255   0   0   0    255  255   255    0   0   0
    255 255 255    255 255 255     255 255 255        0   0   0
    255 255 255    255 255 255    255 255 255     0   0   0
    255 255 255    255 255 255    255 255 255     0   0   0

