P3
24 5
255
     255   0   0    0   0   0         255   0   0     0   0   0
      255 255 255  255 255 255    0   0   0        0   0   0            
    0   0   0    0   0   0     255 255 255     0   0   0
    0   0   0    0   0   0     255 255 255     0   0   0
    255 255 255    255 255 255   255 255 255       0   0   0       
    0   0   0    0   0   0         0   0   0     0   0   0

     255   0   0    0   0   0      255   0   0     0   0   0   
     0   0   0    255 255 255         0   0   0     0   0   0       
    0   0   0    0   0   0     255 255 255     0   0   0
    0   0   0    0   0   0     255 255 255     0   0   0
    0   0   0  0   0   0    255 255 255     0   0   0
     0   200   0    0   0   0         0   0   0     0   0   0

     255   0   0    255   0   0         255   0   0     0   0   0  
    0   0   0    255 255 255         0   0   0        0   0   0       
    255 255 255    255 255 255    255 255 255     0   0   0
    255 255 255    255 255 255    255 255 255     0   0   0
    255 255 255   255 255 255    255 255 255     0   0   0
    0   200   0   0   200   0    0   200   0     0   0   0

     255   0   0     0   0   0     255   0   0     0   0   0    
    0   0   0     255 255 255    0   0   0        0   0    0    
     255 255 255   0   0   0     255 255 255    0   0   0 
     255 255 255   0   0   0    255 255 255     0   0   0 
     0   0   0     0   0   0      255 255 255     0   0   0  
     0   200   0   0   0   0       0   200   0     0   0   0

     255 0 0         0  0  0      255   0   0   0   0   0     
    255 255 255    255 255 255   255 255 255   0   0    0    
    255 255 255    255 255 255    255 255 255     0   0   0
    255 255 255    255 255 255    255 255 255     0   0   0
     255 255 255    255 255 255   255 255 255    0   0   0  
     0   200   0  0   0   0    0   200   0       0 0 0

