P3
16 5
255
      0  0  0     0  0  0     0  0  0   0   0   0
     0   0   255     0   0   255    0  0  0     0 0 0
    0   0   0     0   0   0     0   0   0     0   0   0
     0   0   0     0   0   0     0   0   0     0   0   0

     0   0   0    0   0   0    0  0  0   0   0   0
     0  0  0        0   0   255      0   0   0      0   0   0
     127   0   63    0  0  0     0   0   0     0   0   0
     0   0   0      0   0   0    0   0   0       0   0   0

     0  0  0       0  0  0        0  0  0       0   0   0
     0  0  0      0   0   255    0   0   0       0  0  0
     127   0   63    127   0   63   127   0   63     0   0   0
     0   0   0     0   0   0      0   0   0       0   0   0

     0  0   0     0   0   0       0  0  0    0   0   0
     0  0  0        0   0   255         0   0   0     0   0   0
     127   0   63    0  0  0     127   0   63     0   0   0
     0   0   0    0   0   0     0   0   0     0   0   0

    255 255 255    255 255 255     255 255 255    0   0   0 
     0   0   255   0   0   255     0   0   255      0 0 0
     127   0   63     0 0 0     127   0   63          0   0   0
     255 255 255    255 255 255     255 255 255      0   0  0

