P3
24 5
255
      0  255 255     0  255 255     0  255 255     0   0   0
    127 150 255   127  150  255    0  0  0        0 0 0           
    127  150  0    127  150  0     127  150  0     0   0   0
    255 160  0    0   0   0         0   0   0     0   0   0
    255 0 255    255 0 255     255 0 255     0   0   0
    255 255 255    255 255 255     255 255 255     0   0   0

      0  255 255    0   0   0      0   0   0     0   0   0   
     0   0   0    127  150  255        0   0   0     0   0   0       
    127  150  0   0   0   0     127  150  0     0   0   0
     255 160  0    0   0   0         0   0   0     0   0   0
         0   0   0    255 0 255         0   0   0     0   0   0       
     0   0   0    0   0   0         255 255 255     0   0   0

      0  255 255    0   255   255       0  255 255     0   0   0  
    0   0   0    127  150  255        0   0   0        0   0   0       
    127  150  0    127  150  0    127  150  0     0   0   0
    255 160  0    255 160  0   255 160  0     0   0   0
     0   0   0    255 0 255         0   0   0     0   0   0       
    0   0   0    0   0   0         255 255 255     255 255 255

     0   0   0     0   0   0         0  255 255     0   0   0    
    0   0   0     127  150  255    0   0   0        0   0    0    
     0   0   0   0   0   0     127  150  0     0   0   0 
     255 160  0  0   0   0       255 160  0     0   0   0
     0   0   0    255 0 255         0   0   0     0   0   0       
     0   0   0    0   0   0         255 255 255     0   0   0

     0 255 255    0  255  255         0   255   255   0   0   0     
    127  150  255    127  150  255   127  150  255   0   0    0    
    0    0    0     0  0  0    127  150  0    0   0   0
     255 160  0  0   0   0    255 160  0       0 0 0
     0   0   0    255 0 255         0   0   0     0   0   0     
    255 255 255    255 255 255    255 255 255     0   0   0
